<mxfile host="app.diagrams.net" agent="Mozilla/5.0 (Windows NT 10.0; Win64; x64) AppleWebKit/537.36 (KHTML, like Gecko) Chrome/135.0.0.0 Safari/537.36 Edg/135.0.0.0" version="26.2.14">
  <diagram name="Fluxo de Pedidos" id="47rkd78AoEOVVuxRobhu">
    <mxGraphModel dx="1273" dy="670" grid="0" gridSize="10" guides="1" tooltips="1" connect="1" arrows="1" fold="1" page="0" pageScale="1" pageWidth="827" pageHeight="1169" math="0" shadow="0">
      <root>
        <mxCell id="0" />
        <mxCell id="1" parent="0" />
        <mxCell id="892R9Tq6lqbX1a33o_tE-1" value="Início" style="ellipse;whiteSpace=wrap;html=1;fillColor=#d5e8d4;strokeColor=#82b366;" vertex="1" parent="1">
          <mxGeometry x="100" y="50" width="120" height="60" as="geometry" />
        </mxCell>
        <mxCell id="892R9Tq6lqbX1a33o_tE-2" value="Cliente acessa o Cardápio" style="rounded=1;whiteSpace=wrap;html=1;fillColor=#dae8fc;strokeColor=#6c8ebf;" vertex="1" parent="1">
          <mxGeometry x="100" y="150" width="180" height="60" as="geometry" />
        </mxCell>
        <mxCell id="892R9Tq6lqbX1a33o_tE-3" value="Cliente adiciona itens ao Carrinho" style="rounded=1;whiteSpace=wrap;html=1;fillColor=#dae8fc;strokeColor=#6c8ebf;" vertex="1" parent="1">
          <mxGeometry x="100" y="250" width="220" height="60" as="geometry" />
        </mxCell>
        <mxCell id="892R9Tq6lqbX1a33o_tE-4" value="Cliente finaliza o pedido" style="rounded=1;whiteSpace=wrap;html=1;fillColor=#dae8fc;strokeColor=#6c8ebf;" vertex="1" parent="1">
          <mxGeometry x="100" y="350" width="200" height="60" as="geometry" />
        </mxCell>
        <mxCell id="892R9Tq6lqbX1a33o_tE-5" value="Pedido � salvo no banco de dados" style="rounded=1;whiteSpace=wrap;html=1;fillColor=#f8cecc;strokeColor=#b85450;" vertex="1" parent="1">
          <mxGeometry x="100" y="450" width="240" height="60" as="geometry" />
        </mxCell>
        <mxCell id="892R9Tq6lqbX1a33o_tE-6" value="Status do Pedido: Aguardando Preparo" style="rounded=1;whiteSpace=wrap;html=1;fillColor=#fff2cc;strokeColor=#d6b656;" vertex="1" parent="1">
          <mxGeometry x="100" y="550" width="260" height="60" as="geometry" />
        </mxCell>
        <mxCell id="892R9Tq6lqbX1a33o_tE-7" value="Administrador/Pizzaiolo inicia o preparo" style="rounded=1;whiteSpace=wrap;html=1;fillColor=#dae8fc;strokeColor=#6c8ebf;" vertex="1" parent="1">
          <mxGeometry x="100" y="650" width="280" height="60" as="geometry" />
        </mxCell>
        <mxCell id="892R9Tq6lqbX1a33o_tE-8" value="Status do Pedido: Preparo Iniciado" style="rounded=1;whiteSpace=wrap;html=1;fillColor=#fff2cc;strokeColor=#d6b656;" vertex="1" parent="1">
          <mxGeometry x="100" y="750" width="260" height="60" as="geometry" />
        </mxCell>
        <mxCell id="892R9Tq6lqbX1a33o_tE-9" value="Administrador/Pizzaiolo finaliza o preparo" style="rounded=1;whiteSpace=wrap;html=1;fillColor=#dae8fc;strokeColor=#6c8ebf;" vertex="1" parent="1">
          <mxGeometry x="100" y="850" width="280" height="60" as="geometry" />
        </mxCell>
        <mxCell id="892R9Tq6lqbX1a33o_tE-10" value="Status do Pedido: Preparo Finalizado" style="rounded=1;whiteSpace=wrap;html=1;fillColor=#fff2cc;strokeColor=#d6b656;" vertex="1" parent="1">
          <mxGeometry x="100" y="950" width="260" height="60" as="geometry" />
        </mxCell>
        <mxCell id="892R9Tq6lqbX1a33o_tE-11" value="Entregador inicia a entrega" style="rounded=1;whiteSpace=wrap;html=1;fillColor=#dae8fc;strokeColor=#6c8ebf;" vertex="1" parent="1">
          <mxGeometry x="100" y="1050" width="220" height="60" as="geometry" />
        </mxCell>
        <mxCell id="892R9Tq6lqbX1a33o_tE-12" value="Status do Pedido: Saiu para Entrega" style="rounded=1;whiteSpace=wrap;html=1;fillColor=#fff2cc;strokeColor=#d6b656;" vertex="1" parent="1">
          <mxGeometry x="100" y="1150" width="260" height="60" as="geometry" />
        </mxCell>
        <mxCell id="892R9Tq6lqbX1a33o_tE-13" value="Entregador finaliza a entrega" style="rounded=1;whiteSpace=wrap;html=1;fillColor=#dae8fc;strokeColor=#6c8ebf;" vertex="1" parent="1">
          <mxGeometry x="100" y="1250" width="220" height="60" as="geometry" />
        </mxCell>
        <mxCell id="892R9Tq6lqbX1a33o_tE-14" value="Status do Pedido: Entregue" style="rounded=1;whiteSpace=wrap;html=1;fillColor=#d5e8d4;strokeColor=#82b366;" vertex="1" parent="1">
          <mxGeometry x="100" y="1350" width="200" height="60" as="geometry" />
        </mxCell>
        <mxCell id="892R9Tq6lqbX1a33o_tE-15" value="Fim" style="ellipse;whiteSpace=wrap;html=1;fillColor=#d5e8d4;strokeColor=#82b366;" vertex="1" parent="1">
          <mxGeometry x="100" y="1450" width="120" height="60" as="geometry" />
        </mxCell>
        <mxCell id="892R9Tq6lqbX1a33o_tE-16" edge="1" parent="1" source="892R9Tq6lqbX1a33o_tE-1" target="892R9Tq6lqbX1a33o_tE-2">
          <mxGeometry relative="1" as="geometry" />
        </mxCell>
        <mxCell id="892R9Tq6lqbX1a33o_tE-17" edge="1" parent="1" source="892R9Tq6lqbX1a33o_tE-2" target="892R9Tq6lqbX1a33o_tE-3">
          <mxGeometry relative="1" as="geometry" />
        </mxCell>
        <mxCell id="892R9Tq6lqbX1a33o_tE-18" edge="1" parent="1" source="892R9Tq6lqbX1a33o_tE-3" target="892R9Tq6lqbX1a33o_tE-4">
          <mxGeometry relative="1" as="geometry" />
        </mxCell>
        <mxCell id="892R9Tq6lqbX1a33o_tE-19" edge="1" parent="1" source="892R9Tq6lqbX1a33o_tE-4" target="892R9Tq6lqbX1a33o_tE-5">
          <mxGeometry relative="1" as="geometry" />
        </mxCell>
        <mxCell id="892R9Tq6lqbX1a33o_tE-20" edge="1" parent="1" source="892R9Tq6lqbX1a33o_tE-5" target="892R9Tq6lqbX1a33o_tE-6">
          <mxGeometry relative="1" as="geometry" />
        </mxCell>
        <mxCell id="892R9Tq6lqbX1a33o_tE-21" edge="1" parent="1" source="892R9Tq6lqbX1a33o_tE-6" target="892R9Tq6lqbX1a33o_tE-7">
          <mxGeometry relative="1" as="geometry" />
        </mxCell>
        <mxCell id="892R9Tq6lqbX1a33o_tE-22" edge="1" parent="1" source="892R9Tq6lqbX1a33o_tE-7" target="892R9Tq6lqbX1a33o_tE-8">
          <mxGeometry relative="1" as="geometry" />
        </mxCell>
        <mxCell id="892R9Tq6lqbX1a33o_tE-23" edge="1" parent="1" source="892R9Tq6lqbX1a33o_tE-8" target="892R9Tq6lqbX1a33o_tE-9">
          <mxGeometry relative="1" as="geometry" />
        </mxCell>
        <mxCell id="892R9Tq6lqbX1a33o_tE-24" edge="1" parent="1" source="892R9Tq6lqbX1a33o_tE-9" target="892R9Tq6lqbX1a33o_tE-10">
          <mxGeometry relative="1" as="geometry" />
        </mxCell>
        <mxCell id="892R9Tq6lqbX1a33o_tE-25" edge="1" parent="1" source="892R9Tq6lqbX1a33o_tE-10" target="892R9Tq6lqbX1a33o_tE-11">
          <mxGeometry relative="1" as="geometry" />
        </mxCell>
        <mxCell id="892R9Tq6lqbX1a33o_tE-26" edge="1" parent="1" source="892R9Tq6lqbX1a33o_tE-11" target="892R9Tq6lqbX1a33o_tE-12">
          <mxGeometry relative="1" as="geometry" />
        </mxCell>
        <mxCell id="892R9Tq6lqbX1a33o_tE-27" edge="1" parent="1" source="892R9Tq6lqbX1a33o_tE-12" target="892R9Tq6lqbX1a33o_tE-13">
          <mxGeometry relative="1" as="geometry" />
        </mxCell>
        <mxCell id="892R9Tq6lqbX1a33o_tE-28" edge="1" parent="1" source="892R9Tq6lqbX1a33o_tE-13" target="892R9Tq6lqbX1a33o_tE-14">
          <mxGeometry relative="1" as="geometry" />
        </mxCell>
        <mxCell id="892R9Tq6lqbX1a33o_tE-29" edge="1" parent="1" source="892R9Tq6lqbX1a33o_tE-14" target="892R9Tq6lqbX1a33o_tE-15">
          <mxGeometry relative="1" as="geometry" />
        </mxCell>
      </root>
    </mxGraphModel>
  </diagram>
</mxfile>
